<svg xmlns="http://www.w3.org/2000/svg" xmlns:xlink="http://www.w3.org/1999/xlink" id="Capa_1" width="512" height="512" x="0" y="0" enable-background="new 0 0 463.101 463.101" version="1.1" viewBox="0 0 463.101 463.101" xml:space="preserve"><g><g><g><path fill="#715C8C" d="M451.2,42.401c-6.6,0-12,5.4-12,12v318.5c0,33.7-27.4,61-61,61H85c-33.7,0-61-27.4-61-61v-343.6h351.3v309 c0,6.6,5.4,12,12,12s12-5.4,12-12v-321c0-6.6-5.4-12-12-12H12c-6.6,0-12,5.4-12,12v355.5c0,46.9,38.1,85,85,85h293.1 c46.9,0,85-38.1,85-85v-318.4C463.2,47.801,457.8,42.401,451.2,42.401z" class="active-path" data-old_color="#000000" data-original="#000000"/><path fill="#715C8C" d="M329.3,98.501c6.6,0,12-5.4,12-12s-5.4-12-12-12H67.7c-6.6,0-12,5.4-12,12s5.4,12,12,12H329.3z" class="active-path" data-old_color="#000000" data-original="#000000"/><path fill="#715C8C" d="M329.3,319.101H67.7c-6.6,0-12,5.4-12,12s5.4,12,12,12h261.5c6.6,0,12-5.4,12-12S335.9,319.101,329.3,319.101z" class="active-path" data-old_color="#000000" data-original="#000000"/><path fill="#715C8C" d="M329.3,380.601H109.2c-6.6,0-12,5.4-12,12s5.4,12,12,12h220.1c6.6,0,12-5.4,12-12S335.9,380.601,329.3,380.601z" class="active-path" data-old_color="#000000" data-original="#000000"/><path fill="#715C8C" d="M51.7,140.401v129.8c0,6.6,5.4,12,12,12H194c6.6,0,12-5.4,12-12v-129.8c0-6.6-5.4-12-12-12H63.7 C57.1,128.401,51.7,133.801,51.7,140.401z M75.7,152.401H182v105.8H75.7V152.401z" class="active-path" data-old_color="#000000" data-original="#000000"/><path fill="#715C8C" d="M335.7,140.401h-86.3c-6.6,0-12,5.4-12,12s5.4,12,12,12h86.3c6.6,0,12-5.4,12-12S342.4,140.401,335.7,140.401z" class="active-path" data-old_color="#000000" data-original="#000000"/><path fill="#715C8C" d="M335.7,194.601h-86.3c-6.6,0-12,5.4-12,12s5.4,12,12,12h86.3c6.6,0,12-5.4,12-12S342.4,194.601,335.7,194.601z" class="active-path" data-old_color="#000000" data-original="#000000"/><path fill="#715C8C" d="M347.7,264.201c0-6.6-5.4-12-12-12h-86.3c-6.6,0-12,5.4-12,12s5.4,12,12,12h86.3 C342.4,276.201,347.7,270.801,347.7,264.201z" class="active-path" data-old_color="#000000" data-original="#000000"/></g></g></g></svg>