<?xml version="1.0" standalone="no"?>
<!DOCTYPE svg PUBLIC "-//W3C//DTD SVG 20010904//EN"
 "http://www.w3.org/TR/2001/REC-SVG-20010904/DTD/svg10.dtd">
<svg version="1.0" xmlns="http://www.w3.org/2000/svg"
 width="1000.000000pt" height="1000.000000pt" viewBox="0 0 1000.000000 1000.000000"
 preserveAspectRatio="xMidYMid meet">
<metadata>
Created by potrace 1.11, written by Peter Selinger 2001-2013
</metadata>
<g transform="translate(0.000000,1000.000000) scale(0.100000,-0.100000)"
fill="#000000" stroke="none">
<path d="M965 7151 c-11 -5 -29 -19 -40 -31 -20 -22 -20 -38 -23 -1281 -2
-1091 0 -1264 13 -1294 26 -63 40 -65 435 -65 l350 0 0 -776 c0 -847 -2 -824
57 -855 37 -20 858 -21 894 -1 56 30 54 -8 57 845 l2 787 295 0 295 0 0 -776
c0 -847 -2 -824 57 -855 37 -20 858 -21 894 -1 56 30 54 -8 57 844 l2 787 363
3 c409 3 407 3 427 77 7 27 9 436 8 1290 l-3 1251 -28 27 -27 28 -445 0 -445
0 -27 -28 -28 -27 -3 -1205 -2 -1205 -295 0 -295 0 0 768 c0 502 -4 780 -11
805 -20 73 -12 72 -480 75 -354 2 -423 1 -454 -12 -67 -29 -65 3 -65 -861 l0
-775 -295 0 -295 0 -2 1205 -3 1205 -28 27 -27 28 -433 2 c-237 1 -441 -2
-452 -6z m735 -1326 l0 -1135 -295 0 -295 0 0 1135 0 1135 295 0 295 0 0
-1135z m3200 0 l0 -1135 -295 0 -295 0 0 1135 0 1135 295 0 295 0 0 -1135z
m-1600 -415 l0 -720 -295 0 -295 0 0 720 0 720 295 0 295 0 0 -720z m-800
-1650 l0 -720 -295 0 -295 0 0 720 0 720 295 0 295 0 0 -720z m1600 0 l0 -720
-295 0 -295 0 0 720 0 720 295 0 295 0 0 -720z"/>
<path d="M5765 7151 c-11 -5 -29 -19 -40 -31 -20 -22 -20 -38 -23 -2107 -2
-2285 -6 -2131 55 -2164 38 -20 2457 -21 2494 -1 54 29 54 28 57 435 l3 377
350 0 c284 0 356 3 385 15 63 26 64 34 64 500 0 466 -1 474 -64 500 -29 12
-101 15 -386 15 l-350 0 0 310 0 309 370 3 370 3 27 28 28 27 3 425 c2 282 -1
438 -8 465 -20 75 -17 75 -427 78 l-362 3 -3 379 -3 380 -28 27 -27 28 -1233
2 c-677 1 -1241 -2 -1252 -6z m2335 -501 l0 -310 -762 -2 c-816 -3 -785 -1
-819 -52 -22 -33 -26 -860 -5 -911 28 -67 0 -65 836 -65 l750 0 0 -310 0 -310
-742 0 c-486 0 -756 -4 -781 -11 -74 -20 -72 -9 -72 -504 0 -495 -2 -484 72
-504 25 -7 295 -11 781 -11 l742 0 0 -310 0 -310 -1095 0 -1095 0 0 1960 0
1960 1095 0 1095 0 0 -310z m0 -825 l0 -305 -695 0 -695 0 0 305 0 305 695 0
695 0 0 -305z m800 -5 l0 -310 -295 0 -295 0 0 310 0 310 295 0 295 0 0 -310z
m-800 -1645 l0 -305 -695 0 -695 0 0 305 0 305 695 0 695 0 0 -305z m800 0 l0
-305 -295 0 -295 0 0 305 0 305 295 0 295 0 0 -305z"/>
</g>
</svg>
