<?xml version="1.0" encoding="iso-8859-1"?>
<!-- Generator: Adobe Illustrator 19.0.0, SVG Export Plug-In . SVG Version: 6.00 Build 0)  -->
<svg version="1.1" id="Layer_1" xmlns="http://www.w3.org/2000/svg" xmlns:xlink="http://www.w3.org/1999/xlink" x="0px" y="0px"
	 viewBox="0 0 512 512" style="enable-background:new 0 0 512 512;" xml:space="preserve">
<g>
	<g>
		<path d="M437.333,64c-14.165,0-26.368,8.619-36.629,22.891L61.035,206.229C54.528,196.992,46.315,192,37.333,192
			C16.043,192,0,219.52,0,256s16.043,64,37.333,64c8.981,0,17.195-4.992,23.701-14.229l64.405,22.635l-12.48,20.821
			c-4.117,6.869-6.293,14.741-6.293,22.741c0,18.197,10.901,34.304,27.776,41.045l78.528,31.403
			c5.995,2.389,12.245,3.541,18.411,3.541c18.539,0,36.416-10.304,45.077-27.669l16.512-33.045l107.712,37.845
			C410.944,439.381,423.168,448,437.333,448C485.824,448,512,349.077,512,256S485.824,64,437.333,64z M238.272,401.216
			c-1.6,3.2-6.101,4.971-9.451,3.563l-78.528-31.403l-0.747-2.219l17.003-28.331l85.845,30.165L238.272,401.216z M437.333,405.333
			c-9.579,0-32-50.795-32-149.333s22.421-149.333,32-149.333c9.579,0,32,50.795,32,149.333S446.912,405.333,437.333,405.333z"/>
	</g>
</g>
<g>
</g>
<g>
</g>
<g>
</g>
<g>
</g>
<g>
</g>
<g>
</g>
<g>
</g>
<g>
</g>
<g>
</g>
<g>
</g>
<g>
</g>
<g>
</g>
<g>
</g>
<g>
</g>
<g>
</g>
</svg>
